<svg class="svg-wordmark" xmlns="http://www.w3.org/2000/svg" xmlns:xlink="http://www.w3.org/1999/xlink" version="1.1" x="0px" y="0px" width="140px" viewBox="0 0 600 91.37" enable-background="new 0 0 600 91.37" xml:space="preserve">
<g>
	<path fill="#E9711C" d="M-0.545 87.069c9.744 0 13.157-2.029 13.157-12.405V17.21c0-10.377-3.413-12.401-13.157-12.401V2.274 h72.985l1.094 19.113h-2.437C69.76 10.8 64.5 7.6 54.4 7.59H31.255c-5.48 0-5.48 1.521-5.48 8.861v24.424h25.708 c8.407 0 10.966-3.544 11.816-12.023h2.437v29.359h-2.437c-0.73-8.35-3.533-12.02-11.816-12.02H25.774v27.462 c0 8 0.5 10.6 6.1 10.629h25.712c10.962 0 17.79-6.959 20.957-16.959l2.313 0.888L74.269 89.6H-0.545V87.069z"/>
	<path fill="#E9711C" d="M80.107 87.069c9.018-0.507 12.308-2.154 12.308-12.149V16.958c0-10-3.291-11.647-12.308-12.15V2.274 h38.623v2.535c-9.748 0-13.158 2.024-13.158 12.401v55.812c0 7.1 0.2 11.3 7.4 11.262h17.425 c13.034 0 19.127-5.569 24.244-17.592l2.925 0.507L150.166 89.6H80.107V87.069z"/>
	<path fill="#E9711C" d="M159.778 63.784h2.438c4.874 11.1 12.6 23.2 25.8 23.16c8.653 0 15.963-5.573 15.963-14.305 c0-7.088-7.068-13.289-18.154-21.136c-14.257-10.121-23.517-16.07-23.517-27.587c0-14.68 11.086-23.666 24.49-23.666 c9.625 0 13 4 18.3 4.05c2.071 0 2.437-1.139 2.071-3.163h2.438l2.802 26.067h-2.438 c-3.414-11.262-10.967-22.271-23.275-22.271c-7.553 0-13.646 5.819-13.646 13.666c0 8.2 8.4 13.5 21.8 21.5 c10.967 6.5 21.7 14.4 21.7 26.83c0 13.922-11.337 24.676-25.955 24.676c-8.776 0-18.031-3.671-20.35-3.671 c-1.46 0-3.044 0.889-3.286 2.786h-2.437L159.778 63.784z"/>
	<path fill="#E9711C" d="M216.926 87.069c9.744 0 13.157-2.029 13.157-12.405V17.21c0-10.377-3.414-12.401-13.157-12.401V2.274 h72.984l1.096 19.113h-2.438c-1.341-10.633-6.581-13.796-16.694-13.796h-23.147c-5.486 0-5.486 1.521-5.486 8.861v24.424h25.712 c8.406 0 10.962-3.544 11.816-12.023h2.437v29.359h-2.437c-0.731-8.35-3.533-12.02-11.816-12.02h-25.712v27.462 c0 8 0.5 10.6 6.1 10.629h25.708c10.967 0 17.79-6.959 20.958-16.959l2.313 0.888L291.735 89.6h-74.809V87.069z"/>
	<path fill="#E9711C" d="M339.262 90.612h-1.824L313.92 36.824c-3.898-8.856-7.43-17.843-12.304-26.322 c-2.072-3.544-5.851-5.693-9.991-5.693V2.274h36.187v2.535c-3.413 0-10.237 0-10.237 4.936c0 1.6 3.8 10.5 7.2 18.5 l17.665 41.509l21.204-48.724c2.556-5.819 3.29-8.986 3.29-11.643c0-2.656-2.926-4.177-9.261-4.554V2.274h25.832v2.535 c-1.465 0.251-3.048 0.503-4.509 1.265c-4.633 2.405-9.261 15.313-11.455 20.374L339.262 90.612z"/>
	<path fill="#E9711C" d="M384.331 87.069c9.749 0 13.158-2.029 13.158-12.405V17.21c0-10.377-3.409-12.401-13.158-12.401V2.274 h39.478v2.535c-9.749 0-13.157 2.024-13.157 12.401v57.454c0 10.4 3.4 12.4 13.2 12.405v2.53h-39.478V87.069z"/>
	<path fill="#E9711C" d="M429.264 87.069c9.749 0 13.163-2.029 13.163-12.405V17.21c0-10.377-3.414-12.401-13.163-12.401V2.274 h72.984l1.1 19.113h-2.437c-1.342-10.633-6.58-13.796-16.694-13.796h-23.147c-5.485 0-5.485 1.521-5.485 8.861v24.424h25.708 c8.41 0 10.967-3.544 11.819-12.023h2.438v29.359h-2.438c-0.73-8.35-3.531-12.02-11.819-12.02h-25.708v27.462 c0 8 0.5 10.6 6.1 10.629h25.707c10.968 0 17.79-6.959 20.957-16.959l2.318 0.888L504.078 89.6h-74.814V87.069z"/>
	<path fill="#E9711C" d="M536.827 13.288c0-5.949 1.464-6.33 9.505-6.33c12.062 0 23 4.2 23 18.5 c0 15.438-12.55 19.866-25.713 19.866h-6.821V13.288z M599.455 87.069c-5.481-1.521-7.435-2.911-10.721-6.964l-26.808-32.648 c13.157-2.785 22.299-9.368 22.299-23.792c0-20.377-18.52-21.392-33.754-21.392H510.51v2.535c9.745 0 13.2 2 13.2 12.4 v57.454c0 10.376-3.413 12.405-13.158 12.405v2.53h39.478v-2.53c-9.748 0-13.16-2.029-13.16-12.405V50.62h11.088L579.717 89.6 h19.738V87.069z"/>
</g>
</svg>

