<?xml version="1.0" encoding="utf-8"?>
<!-- Generator: Adobe Illustrator 23.0.1, SVG Export Plug-In . SVG Version: 6.00 Build 0)  -->
<svg version="1.1" id="Layer_1" xmlns="http://www.w3.org/2000/svg" xmlns:xlink="http://www.w3.org/1999/xlink" x="0px" y="0px"
	 viewBox="0 0 59.97 42.24" style="enable-background:new 0 0 59.97 42.24;" xml:space="preserve">
<style type="text/css">
	.st0{fill:#FF8300;}
</style>
<path class="st0" d="M18.66,20.38c9.87,0,21.76-2.25,21.76-11.44C40.42,2.43,33.55,0,27.27,0C17.68,0,0,5.16,0,23.49
	C0,32.69,7.24,38,18.72,38c12.14,0,20.96-7.64,23.66-17.9C35.25,32,26.19,35.7,18.79,35.7c-9.18,0-12.68-6.59-12.68-12.24
	c0-16.17,12.98-21.61,21.17-21.61c5.53,0,8.76,3.43,8.76,7.19c0,10.39-15.47,10.09-22.53,10.09c-0.72,0-2.95,0.02-3.39,0l-1.49,1.49
	c3.23,0.44,7.71,1.3,12.56,3.68c10.09,4.93,19.59,17.94,32.17,17.94c4.56,0,5.75-1.34,6.61-2.52c-6.16,3.79-16.48-2.79-22.04-7.88
	C33.35,27.65,29.31,22.9,18.66,20.38"/>
</svg>
